HIERARCHY
ROOT Hips
{
	OFFSET 0.000000 71.427986 0.000000
	CHANNELS 6 Xposition Yposition Zposition Xrotation Yrotation Zrotation
	JOINT Pelvis
	{
		OFFSET 0.000000 0.000000 0.000000
		CHANNELS 3 Xrotation Yrotation Zrotation
		JOINT LeftUpLeg
		{
			OFFSET 6.797100 -2.508499 -1.318700
			CHANNELS 3 Xrotation Yrotation Zrotation
			JOINT LeftLeg
			{
				OFFSET 0.069008 -29.241863 0.690200
				CHANNELS 3 Xrotation Yrotation Zrotation
				JOINT LeftFoot
				{
					OFFSET -0.069008 -29.568123 -0.266800
					CHANNELS 3 Xrotation Yrotation Zrotation
					JOINT LeftToeBase
					{
						OFFSET 3.145500 -8.631000 16.059900
						CHANNELS 3 Xrotation Yrotation Zrotation
						End Site
						{
							OFFSET 0.000000 18.501587 0.000000
						}
					}
				}
			}
			JOINT Left_ShortSleeve
			{
				OFFSET 0.265923 -10.480953 1.153800
				CHANNELS 3 Xrotation Yrotation Zrotation
				End Site
				{
					OFFSET 1.725763 19.823879 0.000000
				}
			}
		}
		JOINT RightUpLeg
		{
			OFFSET -6.797100 -2.508499 -1.318700
			CHANNELS 3 Xrotation Yrotation Zrotation
			JOINT RightLeg
			{
				OFFSET -0.082453 -29.241932 0.688000
				CHANNELS 3 Xrotation Yrotation Zrotation
				JOINT RightFoot
				{
					OFFSET 0.082453 -29.568058 -0.264600
					CHANNELS 3 Xrotation Yrotation Zrotation
					JOINT RightToeBase
					{
						OFFSET -3.115300 -8.682800 16.113400
						CHANNELS 3 Xrotation Yrotation Zrotation
						End Site
						{
							OFFSET 0.000000 18.567114 0.000000
						}
					}
				}
			}
			JOINT Right_ShortSleeve
			{
				OFFSET -0.265923 -10.480953 1.153800
				CHANNELS 3 Xrotation Yrotation Zrotation
				End Site
				{
					OFFSET -1.725766 19.823910 0.000000
				}
			}
		}
	}
	JOINT Spine
	{
		OFFSET 0.000000 13.368103 0.470500
		CHANNELS 3 Xrotation Yrotation Zrotation
		JOINT Spine1
		{
			OFFSET 0.147000 13.837402 0.538800
			CHANNELS 3 Xrotation Yrotation Zrotation
			JOINT Spine2
			{
				OFFSET 0.168000 16.242897 -1.435500
				CHANNELS 3 Xrotation Yrotation Zrotation
				JOINT Neck
				{
					OFFSET 0.217200 18.631500 -1.679100
					CHANNELS 3 Xrotation Yrotation Zrotation
					JOINT Head
					{
						OFFSET 0.000000 6.599396 1.385900
						CHANNELS 3 Xrotation Yrotation Zrotation
						JOINT Hat
						{
							OFFSET -0.532200 27.220596 -10.096100
							CHANNELS 3 Xrotation Yrotation Zrotation
							End Site
							{
								OFFSET 0.000000 22.029861 0.000000
							}
						}
						JOINT HairD
						{
							OFFSET -10.777400 17.437393 -1.325900
							CHANNELS 3 Xrotation Yrotation Zrotation
							JOINT HairD1
							{
								OFFSET -3.290299 -11.051193 1.062200
								CHANNELS 3 Xrotation Yrotation Zrotation
								End Site
								{
									OFFSET 0.000000 11.579437 0.000000
								}
							}
						}
						JOINT HairB
						{
							OFFSET -10.777400 17.437393 1.467900
							CHANNELS 3 Xrotation Yrotation Zrotation
							JOINT HairB1
							{
								OFFSET -1.561200 -12.956299 3.590200
								CHANNELS 3 Xrotation Yrotation Zrotation
								End Site
								{
									OFFSET 0.000000 13.534866 0.000000
								}
							}
						}
						JOINT HairA
						{
							OFFSET 9.713100 17.437393 1.467900
							CHANNELS 3 Xrotation Yrotation Zrotation
							JOINT HairA1
							{
								OFFSET 1.561200 -12.956299 3.590200
								CHANNELS 3 Xrotation Yrotation Zrotation
								End Site
								{
									OFFSET 0.000000 13.534866 0.000000
								}
							}
						}
						JOINT HairC
						{
							OFFSET 9.713100 17.437393 -1.325900
							CHANNELS 3 Xrotation Yrotation Zrotation
							JOINT HairC1
							{
								OFFSET 3.290300 -11.051193 1.062200
								CHANNELS 3 Xrotation Yrotation Zrotation
								End Site
								{
									OFFSET 0.000000 11.579437 0.000000
								}
							}
						}
					}
				}
				JOINT LeftShoulder
				{
					OFFSET 5.101800 15.108002 -2.763700
					CHANNELS 3 Xrotation Yrotation Zrotation
					JOINT LeftArm
					{
						OFFSET 9.825497 2.506317 -1.597400
						CHANNELS 3 Xrotation Yrotation Zrotation
						JOINT LeftForeArm
						{
							OFFSET 21.966244 0.000000 0.000000
							CHANNELS 3 Xrotation Yrotation Zrotation
							JOINT LeftHand
							{
								OFFSET 33.879036 0.000000 0.000000
								CHANNELS 3 Xrotation Yrotation Zrotation
								JOINT LeftHandThumb1
								{
									OFFSET 6.715286 -2.359680 3.363841
									CHANNELS 3 Xrotation Yrotation Zrotation
									JOINT LeftHandThumb2
									{
										OFFSET 2.507072 -1.447464 1.447461
										CHANNELS 3 Xrotation Yrotation Zrotation
										JOINT LeftHandThumb3
										{
											OFFSET 2.898338 -1.673355 1.673357
											CHANNELS 3 Xrotation Yrotation Zrotation
											End Site
											{
												OFFSET -0.295959 3.727692 -0.131651
											}
										}
									}
								}
								JOINT LeftHandIndex1
								{
									OFFSET 14.190811 -0.254547 3.840278
									CHANNELS 3 Xrotation Yrotation Zrotation
									JOINT LeftHandIndex2
									{
										OFFSET 3.551727 0.000000 -0.000000
										CHANNELS 3 Xrotation Yrotation Zrotation
										JOINT LeftHandIndex3
										{
											OFFSET 2.894196 0.000000 0.000000
											CHANNELS 3 Xrotation Yrotation Zrotation
											End Site
											{
												OFFSET -1.000603 2.690872 0.366626
											}
										}
									}
								}
								JOINT LeftHandMiddle1
								{
									OFFSET 13.776489 0.000000 0.000000
									CHANNELS 3 Xrotation Yrotation Zrotation
									JOINT LeftHandMiddle2
									{
										OFFSET 3.438232 0.000000 0.000000
										CHANNELS 3 Xrotation Yrotation Zrotation
										JOINT LeftHandMiddle3
										{
											OFFSET 3.691551 0.000000 0.000000
											CHANNELS 3 Xrotation Yrotation Zrotation
											End Site
											{
												OFFSET -1.082298 3.499527 0.457670
											}
										}
									}
								}
								JOINT LeftHandRing1
								{
									OFFSET 13.966164 -0.268127 -3.067488
									CHANNELS 3 Xrotation Yrotation Zrotation
									JOINT LeftHandRing2
									{
										OFFSET 3.162567 0.000000 0.000000
										CHANNELS 3 Xrotation Yrotation Zrotation
										JOINT LeftHandRing3
										{
											OFFSET 3.324348 0.000000 0.000000
											CHANNELS 3 Xrotation Yrotation Zrotation
											End Site
											{
												OFFSET -0.861900 3.184998 0.405154
											}
										}
									}
								}
								JOINT LeftHandPinky1
								{
									OFFSET 13.131393 -0.168503 -5.746925
									CHANNELS 3 Xrotation Yrotation Zrotation
									JOINT LeftHandPinky2
									{
										OFFSET 2.849182 0.000000 0.000000
										CHANNELS 3 Xrotation Yrotation Zrotation
										JOINT LeftHandPinky3
										{
											OFFSET 2.805038 0.000000 0.000000
											CHANNELS 3 Xrotation Yrotation Zrotation
											End Site
											{
												OFFSET -0.882500 2.642609 0.325652
											}
										}
									}
								}
							}
							JOINT Left_Sleeve
							{
								OFFSET 6.592125 -0.646545 0.805568
								CHANNELS 3 Xrotation Yrotation Zrotation
								End Site
								{
									OFFSET -0.000179 20.275787 -0.000000
								}
							}
						}
					}
				}
				JOINT RightShoulder
				{
					OFFSET -5.731700 15.108002 -2.763700
					CHANNELS 3 Xrotation Yrotation Zrotation
					JOINT RightArm
					{
						OFFSET -9.825497 2.506317 -1.597400
						CHANNELS 3 Xrotation Yrotation Zrotation
						JOINT RightForeArm
						{
							OFFSET -21.966242 0.000000 0.000000
							CHANNELS 3 Xrotation Yrotation Zrotation
							JOINT RightHand
							{
								OFFSET -33.879032 0.000000 0.000000
								CHANNELS 3 Xrotation Yrotation Zrotation
								JOINT RightHandThumb1
								{
									OFFSET -6.715286 -2.359680 3.363841
									CHANNELS 3 Xrotation Yrotation Zrotation
									JOINT RightHandThumb2
									{
										OFFSET -2.507072 -1.447464 1.447461
										CHANNELS 3 Xrotation Yrotation Zrotation
										JOINT RightHandThumb3
										{
											OFFSET -2.898338 -1.673355 1.673357
											CHANNELS 3 Xrotation Yrotation Zrotation
											End Site
											{
												OFFSET 0.295959 3.727692 -0.131651
											}
										}
									}
								}
								JOINT RightHandIndex1
								{
									OFFSET -14.190811 -0.254547 3.840278
									CHANNELS 3 Xrotation Yrotation Zrotation
									JOINT RightHandIndex2
									{
										OFFSET -3.551727 0.000000 -0.000000
										CHANNELS 3 Xrotation Yrotation Zrotation
										JOINT RightHandIndex3
										{
											OFFSET -2.894196 0.000000 0.000000
											CHANNELS 3 Xrotation Yrotation Zrotation
											End Site
											{
												OFFSET 1.000603 2.690872 0.366626
											}
										}
									}
								}
								JOINT RightHandMiddle1
								{
									OFFSET -13.776489 0.000000 0.000000
									CHANNELS 3 Xrotation Yrotation Zrotation
									JOINT RightHandMiddle2
									{
										OFFSET -3.438232 0.000000 0.000000
										CHANNELS 3 Xrotation Yrotation Zrotation
										JOINT RightHandMiddle3
										{
											OFFSET -3.691551 0.000000 0.000000
											CHANNELS 3 Xrotation Yrotation Zrotation
											End Site
											{
												OFFSET 1.082298 3.499527 0.457670
											}
										}
									}
								}
								JOINT RightHandRing1
								{
									OFFSET -13.966164 -0.268127 -3.067488
									CHANNELS 3 Xrotation Yrotation Zrotation
									JOINT RightHandRing2
									{
										OFFSET -3.162567 0.000000 0.000000
										CHANNELS 3 Xrotation Yrotation Zrotation
										JOINT RightHandRing3
										{
											OFFSET -3.324348 0.000000 0.000000
											CHANNELS 3 Xrotation Yrotation Zrotation
											End Site
											{
												OFFSET 0.861900 3.184998 0.405154
											}
										}
									}
								}
								JOINT RightHandPinky1
								{
									OFFSET -13.131393 -0.168503 -5.746925
									CHANNELS 3 Xrotation Yrotation Zrotation
									JOINT RightHandPinky2
									{
										OFFSET -2.849182 0.000000 0.000000
										CHANNELS 3 Xrotation Yrotation Zrotation
										JOINT RightHandPinky3
										{
											OFFSET -2.805038 0.000000 0.000000
											CHANNELS 3 Xrotation Yrotation Zrotation
											End Site
											{
												OFFSET 0.882500 2.642609 0.325652
											}
										}
									}
								}
							}
							JOINT Right_Sleeve
							{
								OFFSET -6.592125 -0.646545 0.805568
								CHANNELS 3 Xrotation Yrotation Zrotation
								End Site
								{
									OFFSET 0.000179 20.275787 -0.000000
								}
							}
						}
					}
				}
				JOINT Bind_Right_JacketString
				{
					OFFSET -3.534800 11.969597 7.200700
					CHANNELS 3 Xrotation Yrotation Zrotation
					JOINT Bind_Right_JacketString1
					{
						OFFSET -0.319900 -6.102600 2.794100
						CHANNELS 3 Xrotation Yrotation Zrotation
						End Site
						{
							OFFSET 0.000000 6.719452 0.000000
						}
					}
				}
				JOINT Bind_Left_JacketString
				{
					OFFSET 2.904800 11.969597 7.200700
					CHANNELS 3 Xrotation Yrotation Zrotation
					JOINT Bind_Left_JacketString1
					{
						OFFSET 0.364800 -5.904503 3.186800
						CHANNELS 3 Xrotation Yrotation Zrotation
						End Site
						{
							OFFSET 0.000000 6.719513 0.000000
						}
					}
				}
				JOINT HairE
				{
					OFFSET 5.915200 17.612701 -11.592200
					CHANNELS 3 Xrotation Yrotation Zrotation
					JOINT HairE1
					{
						OFFSET 0.289200 -7.171898 -1.284500
						CHANNELS 3 Xrotation Yrotation Zrotation
						End Site
						{
							OFFSET 0.000000 7.291756 0.000000
						}
					}
				}
				JOINT HairF
				{
					OFFSET -0.864800 17.612701 -11.592200
					CHANNELS 3 Xrotation Yrotation Zrotation
					JOINT HairF1
					{
						OFFSET 0.000000 -14.087097 -2.127501
						CHANNELS 3 Xrotation Yrotation Zrotation
						End Site
						{
							OFFSET 0.000000 14.246841 0.000000
						}
					}
				}
				JOINT HairG
				{
					OFFSET -8.087700 17.612701 -11.592200
					CHANNELS 3 Xrotation Yrotation Zrotation
					JOINT HairG1
					{
						OFFSET -0.293600 -6.081398 -0.910100
						CHANNELS 3 Xrotation Yrotation Zrotation
						End Site
						{
							OFFSET 0.000000 6.156120 0.000000
						}
					}
				}
			}
		}
	}
	JOINT Pouch
	{
		OFFSET 0.000000 4.394501 10.847300
		CHANNELS 3 Xrotation Yrotation Zrotation
		End Site
		{
			OFFSET 0.000000 21.880577 0.000000
		}
	}
	JOINT Bag
	{
		OFFSET -13.229000 4.813004 -0.593300
		CHANNELS 3 Xrotation Yrotation Zrotation
		End Site
		{
			OFFSET 0.000000 21.880577 0.000000
		}
	}
	JOINT OccupyGuyFacialAnim_Joint
	{
		OFFSET 1.000000 -70.206398 -1.655000
		CHANNELS 3 Xrotation Yrotation Zrotation
		End Site
		{
			OFFSET 0.000000 21.880577 0.000000
		}
	}
}
MOTION
Frames: 4
Frame Time: 0.033333
-1.078624 61.750473 0.711395 3.923636 -55.679606 2.289128 -0.000000 0.000000 -0.000000 -40.597661 8.345172 29.472509 44.994383 -2.118166 0.792948 -5.363409 1.610610 -17.613892 0.000000 0.000000 -0.000000 -0.000000 0.000003 0.000002 -25.596452 -7.348594 -24.692411 49.007840 -0.753820 -2.159235 -21.812134 -5.368781 23.010419 -0.000000 0.000000 -0.000000 0.000001 -0.000002 -0.000000 3.131746 2.062602 -1.192210 6.294767 3.728563 -1.545640 6.299648 3.720193 -1.545615 4.278066 2.326418 -1.741830 -18.294110 42.500132 -0.054192 0.000001 -0.000000 0.000000 0.000001 -0.000000 0.000000 0.000001 -0.000000 0.000000 0.000001 -0.000000 0.000000 0.000001 0.000000 -0.000000 0.000001 -0.000000 0.000000 0.000001 0.000000 -0.000000 0.000001 -0.000000 0.000000 0.000001 -0.000000 0.000000 0.477134 4.143204 -8.412467 -39.188583 -7.381803 -51.196267 -0.000012 -60.057614 -0.000018 -5.921651 -2.343840 -0.161889 16.418655 -17.606489 -10.198173 8.202711 29.477857 2.726691 -0.000003 -0.000001 0.000001 5.286322 8.165021 -83.777079 6.542009 5.810238 -96.793616 0.000002 -0.000001 0.000001 5.044757 8.133880 -81.389593 6.521501 5.812658 -96.590916 0.000005 0.000001 0.000001 5.622902 8.191599 -87.087275 6.228606 5.838923 -93.705858 -0.000001 -0.000000 0.000002 5.727219 8.195962 -88.110239 5.999992 5.849175 -91.461055 -0.000000 -0.000001 0.000001 0.000000 -0.000001 -0.000001 0.605027 -4.801913 9.552712 -64.628910 76.166226 98.255536 0.003130 94.497532 -0.003188 -4.133380 18.691608 -2.093828 -9.909290 3.191888 17.248671 9.375939 -40.468649 -3.760814 -0.000002 -0.000001 -0.000000 2.072325 -6.118698 55.520538 4.593812 -4.656715 89.219981 -0.000001 0.000003 0.000001 3.476848 -6.766913 74.656017 4.498736 -4.654466 88.048426 0.000004 0.000001 -0.000002 4.352623 -6.918119 85.611456 4.091176 -4.622719 83.011776 0.000000 0.000001 0.000001 5.130519 -6.912713 95.195686 4.865353 -4.652523 92.564984 0.000001 0.000004 -0.000002 0.000002 -0.000001 0.000000 -0.000001 0.000001 0.000001 -0.000001 0.000001 0.000000 -0.000001 0.000001 -0.000001 -0.000001 0.000001 -0.000001 -0.000001 0.000001 0.000001 -0.000001 0.000001 0.000001 -0.000001 0.000001 -0.000001 -0.000001 0.000001 -0.000001 -0.000001 0.000001 0.000001 -0.000001 0.000001 0.000001 -0.000000 0.000000 -0.000000 -0.000000 0.000000 -0.000000 -0.000000 0.000000 -0.000000 
-1.096864 61.756226 0.709882 3.991988 -55.550308 2.290889 -0.000000 0.000000 0.000000 -40.675112 8.282125 29.450939 44.969323 -2.198900 0.824239 -5.339505 1.610520 -17.598841 0.000000 -0.000002 -0.000000 -0.000002 0.000001 -0.000001 -25.540511 -7.402670 -24.648414 48.965025 -0.851276 -2.110897 -21.825511 -5.370712 23.021991 0.000000 0.000000 0.000000 0.000000 0.000001 -0.000001 3.118148 2.085749 -1.209489 6.269429 3.766845 -1.600502 6.274153 3.758832 -1.600605 4.294977 2.276743 -1.594244 -18.372719 42.367858 -0.005375 0.000000 -0.000000 -0.000000 0.000000 -0.000000 -0.000000 0.000000 -0.000000 0.000000 0.000000 -0.000000 -0.000000 0.000000 0.000000 -0.000000 0.000000 -0.000000 -0.000000 0.000000 0.000000 -0.000000 0.000000 -0.000000 -0.000000 0.000000 -0.000000 -0.000000 0.476023 4.105476 -8.303387 -39.076226 -7.466879 -51.210484 -0.000025 -60.190974 -0.000023 -5.925952 -2.332855 -0.267755 16.418661 -17.606500 -10.198169 8.202723 29.477840 2.726683 0.000002 -0.000000 0.000001 5.286318 8.165013 -83.777106 6.542004 5.810243 -96.793609 0.000001 0.000001 -0.000003 5.044745 8.133889 -81.389593 6.521488 5.812652 -96.590896 -0.000000 0.000002 -0.000001 5.622922 8.191584 -87.087296 6.228578 5.838907 -93.705810 -0.000001 0.000000 -0.000003 5.727228 8.195954 -88.110253 5.999995 5.849183 -91.461069 -0.000002 -0.000001 0.000001 -0.000001 0.000003 0.000003 0.610884 -4.860576 9.713740 -64.253427 76.364295 97.868251 0.002468 94.579105 -0.002459 -4.011163 18.535918 -2.482945 -9.909302 3.191895 17.248666 9.375960 -40.468642 -3.760804 -0.000003 0.000001 0.000001 2.072328 -6.118678 55.520538 4.593819 -4.656712 89.219961 -0.000000 -0.000000 -0.000002 3.476841 -6.766902 74.656010 4.498743 -4.654473 88.048426 0.000002 0.000002 -0.000000 4.352622 -6.918092 85.611428 4.091180 -4.622724 83.011797 -0.000002 -0.000004 -0.000004 5.130520 -6.912722 95.195700 4.865373 -4.652532 92.564984 -0.000002 0.000003 -0.000003 0.000004 0.000000 -0.000001 -0.000002 -0.000001 0.000001 -0.000000 -0.000004 0.000001 -0.000002 -0.000001 -0.000000 -0.000002 -0.000001 -0.000000 -0.000002 -0.000001 0.000001 -0.000000 -0.000004 0.000001 -0.000002 -0.000001 -0.000000 -0.000002 -0.000001 -0.000000 -0.000002 -0.000001 0.000001 -0.000000 -0.000004 0.000001 -0.000000 0.000000 0.000000 -0.000000 0.000000 0.000000 -0.000000 0.000000 0.000000 
-1.123932 61.764503 0.701411 3.997986 -55.435963 2.264288 -0.000000 -0.000000 -0.000000 -40.678742 8.249386 29.435691 44.895940 -2.255887 0.859659 -5.296483 1.610870 -17.616409 -0.000000 -0.000002 0.000000 0.000003 0.000003 0.000001 -25.462821 -7.454943 -24.611922 48.940693 -0.939841 -2.081894 -21.855022 -5.377695 23.030245 0.000000 0.000001 -0.000000 -0.000000 -0.000003 -0.000002 3.111598 2.115862 -1.230963 6.258942 3.817591 -1.674381 6.263477 3.810026 -1.674642 4.268277 2.243666 -1.460291 -18.288504 42.240188 0.151970 0.000001 0.000000 -0.000000 0.000001 0.000000 -0.000000 0.000001 0.000000 -0.000000 0.000001 0.000000 -0.000000 0.000001 0.000000 -0.000000 0.000001 0.000000 -0.000000 0.000001 0.000000 -0.000000 0.000001 0.000000 -0.000000 0.000001 0.000000 -0.000000 0.474375 4.057021 -8.168963 -39.020010 -7.559198 -51.243084 0.000043 -60.296514 0.000022 -5.934755 -2.310322 -0.484873 16.418653 -17.606495 -10.198173 8.202696 29.477850 2.726689 0.000005 -0.000002 -0.000001 5.286332 8.165021 -83.777085 6.541989 5.810224 -96.793623 0.000004 0.000001 -0.000002 5.044767 8.133889 -81.389586 6.521477 5.812651 -96.590896 -0.000000 0.000001 0.000001 5.622924 8.191592 -87.087282 6.228587 5.838917 -93.705831 0.000000 -0.000000 -0.000000 5.727219 8.195985 -88.110260 6.000008 5.849181 -91.461035 0.000002 0.000000 -0.000001 -0.000000 -0.000000 -0.000002 0.618109 -4.928129 9.898383 -63.791166 76.479793 97.401291 0.001916 94.639183 -0.001872 -3.931854 18.400637 -2.865745 -9.909291 3.191894 17.248664 9.375948 -40.468632 -3.760817 -0.000000 0.000000 0.000003 2.072323 -6.118706 55.520548 4.593835 -4.656730 89.219988 -0.000002 0.000001 0.000000 3.476846 -6.766910 74.656003 4.498744 -4.654475 88.048399 -0.000001 -0.000001 -0.000004 4.352625 -6.918102 85.611428 4.091179 -4.622726 83.011783 -0.000002 0.000000 0.000001 5.130524 -6.912703 95.195700 4.865349 -4.652517 92.564964 0.000003 -0.000002 0.000000 0.000001 -0.000002 -0.000001 -0.000001 -0.000001 0.000001 0.000000 -0.000002 0.000001 -0.000001 -0.000001 -0.000000 -0.000001 -0.000001 -0.000000 -0.000001 -0.000001 0.000001 0.000000 -0.000002 0.000001 -0.000001 -0.000001 -0.000000 -0.000001 -0.000001 -0.000000 -0.000001 -0.000001 0.000001 0.000000 -0.000002 0.000001 -0.000000 -0.000000 -0.000000 -0.000000 -0.000000 -0.000000 -0.000000 -0.000000 -0.000000 
-1.154521 61.761780 0.691753 3.979922 -55.374475 2.244414 -0.000000 0.000000 -0.000000 -40.658719 8.230582 29.431183 44.861089 -2.273742 0.885089 -5.275322 1.611165 -17.654781 -0.000000 0.000000 -0.000000 0.000003 -0.000002 0.000002 -25.415339 -7.467467 -24.586260 48.974727 -0.999796 -2.084711 -21.907808 -5.393757 23.044331 -0.000000 -0.000000 0.000000 -0.000001 0.000001 0.000002 3.109820 2.136902 -1.249695 6.260094 3.852493 -1.737324 6.264524 3.845256 -1.737705 4.235307 2.232251 -1.381173 -18.236176 42.199566 0.258209 0.000000 -0.000000 0.000000 0.000000 -0.000000 0.000000 0.000000 -0.000000 0.000000 0.000000 -0.000000 -0.000000 0.000000 -0.000000 -0.000000 0.000000 -0.000000 -0.000000 0.000000 -0.000000 -0.000000 0.000000 -0.000000 0.000000 0.000000 -0.000000 0.000000 0.473286 4.019172 -8.063567 -38.995264 -7.587216 -51.229779 -0.000044 -60.336525 -0.000040 -5.941071 -2.294060 -0.641395 16.418661 -17.606498 -10.198172 8.202712 29.477860 2.726689 -0.000004 0.000002 0.000002 5.286333 8.165033 -83.777085 6.542007 5.810236 -96.793602 0.000001 0.000000 -0.000002 5.044774 8.133884 -81.389586 6.521495 5.812644 -96.590916 -0.000000 -0.000001 0.000001 5.622921 8.191583 -87.087282 6.228608 5.838937 -93.705838 0.000002 0.000001 -0.000002 5.727234 8.195948 -88.110239 5.999978 5.849173 -91.461076 0.000001 0.000000 0.000003 -0.000000 -0.000000 -0.000002 0.621528 -4.963724 10.005353 -63.745759 76.486945 97.334321 -0.001336 94.643431 0.001331 -3.831225 18.334931 -3.211322 -9.909297 3.191899 17.248663 9.375923 -40.468652 -3.760835 -0.000003 -0.000002 0.000000 2.072330 -6.118689 55.520548 4.593843 -4.656720 89.219988 -0.000000 -0.000001 0.000002 3.476852 -6.766907 74.656017 4.498737 -4.654475 88.048406 0.000001 0.000001 -0.000002 4.352620 -6.918095 85.611408 4.091163 -4.622735 83.011783 -0.000001 0.000000 0.000000 5.130518 -6.912708 95.195680 4.865369 -4.652526 92.564998 -0.000001 0.000001 0.000001 0.000002 -0.000000 0.000000 0.000001 0.000001 0.000001 0.000001 0.000001 -0.000000 0.000001 0.000001 0.000000 0.000001 0.000001 0.000000 0.000001 0.000001 0.000001 0.000001 0.000001 -0.000000 0.000001 0.000001 0.000000 0.000001 0.000001 0.000000 0.000001 0.000001 0.000001 0.000001 0.000001 -0.000000 -0.000000 0.000000 -0.000000 -0.000000 0.000000 -0.000000 -0.000000 0.000000 -0.000000 
